<svg width="84" height="30" viewBox="0 0 84 30" fill="none" xmlns="http://www.w3.org/2000/svg">
<path d="M2.24731 13.0332C1.14274 13.0332 0.247315 13.9286 0.247315 15.0332C0.247315 16.1378 1.14274 17.0332 2.24731 17.0332V13.0332ZM82.8575 16.4474C83.6385 15.6664 83.6385 14.4 82.8575 13.619L70.1296 0.891068C69.3485 0.11002 68.0822 0.11002 67.3011 0.891068C66.5201 1.67212 66.5201 2.93845 67.3011 3.7195L78.6148 15.0332L67.3011 26.3469C66.5201 27.128 66.5201 28.3943 67.3011 29.1753C68.0822 29.9564 69.3485 29.9564 70.1296 29.1753L82.8575 16.4474ZM2.24731 17.0332H81.4433V13.0332H2.24731V17.0332Z" fill="black"/>
</svg>
