<svg width="1355" height="726" viewBox="0 0 1355 726" fill="none" xmlns="http://www.w3.org/2000/svg">
<g filter="url(#filter0_f_371_708)">
<path d="M1320.13 680.237C1317.64 680.237 1316.75 680.33 1315.91 682.961C1315.3 684.876 1315.44 687.03 1315.48 689.029C1315.56 692.095 1318.76 692.588 1321.12 692.588C1323.59 692.588 1325.54 691.747 1325.54 689.072C1325.54 684.483 1325.09 681.581 1319.35 681.009" stroke="#83A8B4" stroke-width="3" stroke-linecap="round"/>
<path d="M1318.8 681.217C1318.42 675.439 1316.88 668.391 1318.23 662.598C1318.93 659.59 1321.6 657.035 1323.68 654.838C1326.12 652.264 1328.31 653.091 1330.44 655.894C1334 660.594 1331.56 666.665 1330.09 671.523C1329.83 672.389 1325.87 684.069 1325.37 683.591" stroke="#83A8B4" stroke-width="3" stroke-linecap="round"/>
<path d="M1325.54 683.715C1325.54 681.181 1329.57 678.721 1331.11 677.353C1334.2 674.595 1338.12 671.444 1342 670.178C1343.92 669.553 1344.46 675.31 1344.51 676.495C1344.74 681.837 1345.19 686.077 1339.89 688.791C1336.82 690.366 1332.82 691.822 1329.36 691.386C1327.97 691.211 1327.24 689.807 1325.92 689.807" stroke="#83A8B4" stroke-width="3" stroke-linecap="round"/>
<path d="M1325.19 689.219C1330.95 689.219 1336.46 690.72 1341.87 692.531C1344.42 693.386 1346.18 694.134 1347.26 696.72C1347.95 698.371 1348.35 701.486 1347.58 703.169C1346.25 706.045 1336.41 704.604 1334.54 704.376C1327.52 703.52 1322.33 698.614 1319.93 692.377" stroke="#83A8B4" stroke-width="3" stroke-linecap="round"/>
<path d="M1319.84 692.588C1319.84 698.776 1320.06 705.003 1319.82 711.186C1319.75 713.095 1319.11 714.789 1317.9 716.275C1315.19 719.625 1308.28 721.24 1305.92 716.924C1302.85 711.335 1304.22 703.528 1307.62 698.499C1309.57 695.608 1312.23 694.701 1314.8 692.978" stroke="#83A8B4" stroke-width="3" stroke-linecap="round"/>
<path d="M1315.44 692.56C1311.97 692.56 1308.5 692.623 1305.03 692.56C1299.61 692.461 1295.41 690.769 1290.6 688.595C1288.25 687.537 1284.6 686.468 1284.04 683.608C1283.64 681.547 1286.17 679.699 1287.94 679.132C1293.33 677.402 1300.91 677.751 1306.27 679.431C1308.44 680.112 1313.4 681.697 1314.24 684.12" stroke="#83A8B4" stroke-width="3" stroke-linecap="round"/>
<path d="M1314.01 683.605C1309.51 681.05 1305.77 678.285 1303 674.05C1300.53 670.284 1296.58 664.496 1304.04 663.523C1309.51 662.809 1313.58 665.177 1317.68 668.005" stroke="#83A8B4" stroke-width="3" stroke-linecap="round"/>
</g>
<g filter="url(#filter1_f_371_708)">
<path d="M389.792 400.563C392.415 411.056 336.5 437.749 327.979 442.581C300.727 458.033 270.996 418.978 265.165 395.212C257.141 362.512 296.102 348.245 319.372 340.223C342.835 332.135 385.015 312.016 396.669 345.941C401.084 358.794 403.72 376.023 390.41 383.185" stroke="#83A8B4" stroke-width="10" stroke-linecap="round"/>
<path d="M400.78 403.655C423.794 413.825 449.67 421.028 471.063 434.123C489.704 445.534 502.075 459.043 515.542 475.94C524.782 487.534 557.498 515.515 534.339 526.609C510.75 537.909 489.029 528.89 465.949 520.709C442.816 512.508 417.145 501.663 399.314 484.204C392.177 477.216 379.441 455.998 369.252 455.034" stroke="#83A8B4" stroke-width="10" stroke-linecap="round"/>
<path d="M368.429 452.906C375.673 471.621 387.709 487.62 393.828 507.277C402.78 536.037 408.9 571.335 382.264 593.366C368.516 604.738 357.095 587.654 352.446 576.071C347.674 564.181 341.49 551.658 339.434 538.941C336.595 521.38 337.238 503.857 333.592 486.25C331.313 475.242 326.414 441.885 328.83 452.863C330.948 462.484 325.759 475.334 325.148 485.166C324.101 502.003 315.232 518.031 306.788 532.263C300.245 543.291 278.024 576.92 260.721 569.274C243.428 561.633 231.639 526.123 235.311 509.603C241.908 479.918 261.008 454.449 285.172 436.71C292.749 431.147 282.655 439.55 280.547 441.628C267.76 454.233 250.452 461.517 235.044 470.259C211.65 483.533 188.972 497.887 163.814 507.625C154.762 511.129 143.135 515.173 133.476 511.479C116.966 505.164 107.698 488.413 120.525 473.101C128.897 463.107 142.529 459.324 154.32 454.987C180.678 445.292 207.397 440.319 235.025 436.125C247.777 434.189 260.724 433.387 272.823 428.703C280.527 425.721 272.118 428.977 269.038 430.169C231.723 444.613 191.942 439.381 153.107 432.877C127.453 428.58 103.298 418.206 83.5224 401.05C76.3046 394.789 66.9055 379.757 72.071 369.709C78.5758 357.055 108.654 358.54 119.306 358.907C136.357 359.493 152.821 363.754 169.387 367.406C192.847 372.577 216.604 375.969 240.071 380.988C246.704 382.406 265.086 390.73 259.582 386.765C234.642 368.799 212.281 346.553 195.161 320.839C180.925 299.456 164.262 269.242 175.094 242.641C182.55 224.329 202.694 221.367 219.734 223.729C250.982 228.062 267.304 254.908 277.671 281.692C283.286 296.197 289.382 310.532 292.82 325.748C294.928 335.075 291.993 311.74 291.859 310.613C287.716 275.817 289.637 239.904 294.921 205.371C301.384 163.126 305.885 105.257 340.989 75.5932C353.085 65.372 371.279 50.747 388.442 51.6484C401.243 52.3206 408.745 70.9147 413.776 80.2001C425.409 101.671 439.359 126.14 440.403 151.098C442.031 190.001 419.734 219.57 399.342 250.238C387.548 267.974 378.183 286.752 368.404 305.604C361.526 318.865 369.165 310.354 374.377 304.516C385.312 292.267 393.835 278.71 405.863 267.437C427.771 246.904 449.85 226.493 472.617 206.912C492.79 189.562 516.718 165.418 543.184 157.289C557.715 152.826 570.86 160.215 578.871 172.176C606.367 213.229 559.063 246.79 531.25 270.182C509.575 288.411 486.288 311.391 459.55 322.148C443.177 328.734 426.688 335.262 410.102 341.288C401.224 344.513 431.093 330.603 434.83 329.268C463.621 318.978 497.097 323.266 527.013 324.598C555.248 325.856 602.26 323.965 614.647 355.967C625.676 384.458 559.09 408.473 541.551 414.866C524.624 421.036 493.204 427.682 476.545 415.953" stroke="#83A8B4" stroke-width="10" stroke-linecap="round"/>
</g>
<defs>
<filter id="filter0_f_371_708" x="1277.8" y="647.088" width="76.4016" height="78.6461" filterUnits="userSpaceOnUse" color-interpolation-filters="sRGB">
<feFlood flood-opacity="0" result="BackgroundImageFix"/>
<feBlend mode="normal" in="SourceGraphic" in2="BackgroundImageFix" result="shape"/>
<feGaussianBlur stdDeviation="2.35" result="effect1_foregroundBlur_371_708"/>
</filter>
<filter id="filter1_f_371_708" x="47.2831" y="28.3084" width="591.896" height="592.102" filterUnits="userSpaceOnUse" color-interpolation-filters="sRGB">
<feFlood flood-opacity="0" result="BackgroundImageFix"/>
<feBlend mode="normal" in="SourceGraphic" in2="BackgroundImageFix" result="shape"/>
<feGaussianBlur stdDeviation="9.15" result="effect1_foregroundBlur_371_708"/>
</filter>
</defs>
</svg>
