<svg width="83" height="84" viewBox="0 0 83 84" fill="none" xmlns="http://www.w3.org/2000/svg">
<g filter="url(#filter0_f_364_262)">
<path d="M35.2417 46.3252C37.5894 47.152 38.4547 47.3587 40.1201 45.156C41.3329 43.5519 41.9211 41.4763 42.5413 39.5752C43.4923 36.6594 40.6368 35.1307 38.4117 34.3471C36.0814 33.5265 33.9556 33.6702 33.0671 36.1932C31.5428 40.5216 31.0091 43.4097 36.228 45.8541" stroke="#83A8B4" stroke-width="3" stroke-linecap="round"/>
<path d="M36.8187 45.8423C35.2585 51.4187 34.3723 58.5786 31.1721 63.5931C29.5103 66.197 26.1413 67.7196 23.4514 69.1008C20.2987 70.7195 18.506 69.2115 17.432 65.8623C15.6306 60.2444 19.9519 55.3303 22.9463 51.2344C23.4804 50.5038 31.1004 40.8048 31.4096 41.4204" stroke="#83A8B4" stroke-width="3" stroke-linecap="round"/>
<path d="M31.2878 41.2456C30.4459 43.6361 25.8308 44.6184 23.9269 45.3986C20.0902 46.9706 15.3519 48.6432 11.2674 48.5467C9.24871 48.499 10.6551 42.8907 11.0004 41.7552C12.5557 36.6402 13.5449 32.4932 19.4378 31.6905C22.8567 31.2248 27.1157 31.1811 30.2381 32.7433C31.4925 33.3709 31.715 34.9378 32.9534 35.3739" stroke="#83A8B4" stroke-width="3" stroke-linecap="round"/>
<path d="M33.4501 36.1721C28.0202 34.2598 23.3155 31.011 18.8192 27.508C16.6958 25.8537 15.2809 24.5628 15.1226 21.7645C15.0216 19.9791 15.677 16.9068 16.9679 15.5773C19.1742 13.3051 27.9787 17.9343 29.6652 18.7698C35.9994 21.908 39.2715 28.2614 39.4603 34.9399" stroke="#83A8B4" stroke-width="3" stroke-linecap="round"/>
<path d="M39.6148 34.7711C41.6702 28.9348 43.5359 22.9899 45.813 17.2357C46.5156 15.4602 47.6829 14.0746 49.3098 13.0728C52.9799 10.8129 60.0339 11.5854 60.8328 16.4422C61.8676 22.7327 57.9793 29.6395 53.1087 33.2566C50.3089 35.3358 47.4913 35.3043 44.4945 36.0764" stroke="#83A8B4" stroke-width="3" stroke-linecap="round"/>
<path d="M43.7571 36.2598C47.0274 37.4115 50.3241 38.5057 53.5726 39.7165C58.6584 41.612 62.0558 44.6028 65.8722 48.2508C67.7318 50.0285 70.8218 52.2491 70.3972 55.1319C70.0912 57.2095 67.0872 58.1112 65.2349 58.0591C59.5715 57.8998 52.5392 55.0525 48.0421 51.688C46.2197 50.3246 42.0679 47.1813 42.0814 44.6177" stroke="#83A8B4" stroke-width="3" stroke-linecap="round"/>
<path d="M42.1282 45.1799C45.5246 49.0844 48.1359 52.9359 49.3456 57.8516C50.4214 62.223 52.2235 68.9943 44.8652 67.4347C39.465 66.2901 36.4127 62.7047 33.4824 58.6748" stroke="#83A8B4" stroke-width="3" stroke-linecap="round"/>
</g>
<defs>
<filter id="filter0_f_364_262" x="4.00178" y="5.65962" width="72.6355" height="70.2945" filterUnits="userSpaceOnUse" color-interpolation-filters="sRGB">
<feFlood flood-opacity="0" result="BackgroundImageFix"/>
<feBlend mode="normal" in="SourceGraphic" in2="BackgroundImageFix" result="shape"/>
<feGaussianBlur stdDeviation="2.35" result="effect1_foregroundBlur_364_262"/>
</filter>
</defs>
</svg>
