<svg width="89" height="90" viewBox="0 0 89 90" fill="none" xmlns="http://www.w3.org/2000/svg">
<g filter="url(#filter0_f_364_254)">
<path d="M45.294 37.4836C43.125 38.7046 42.3992 39.2191 42.9584 41.9233C43.3657 43.8926 44.5391 45.7029 45.5604 47.4222C47.1266 50.059 50.1582 48.9187 52.214 47.7616C54.367 46.5497 55.6598 44.8562 54.3477 42.5252C52.0967 38.5262 50.2762 36.2215 44.9983 38.5359" stroke="#F6BF34" stroke-width="3" stroke-linecap="round"/>
<path d="M44.618 38.9878C41.4519 34.1394 36.6508 28.7544 34.9882 23.0428C34.1249 20.0769 35.2 16.5395 35.9338 13.6062C36.794 10.1682 39.1096 9.81358 42.3364 11.213C47.749 13.5604 48.5972 20.0491 49.7045 25.0005C49.902 25.8837 52.1752 38.0067 51.5085 37.8335" stroke="#F6BF34" stroke-width="3" stroke-linecap="round"/>
<path d="M51.7202 37.8572C50.4771 35.6486 52.7796 31.5301 53.4476 29.5839C54.7936 25.6623 56.6583 20.9962 59.4226 17.9877C60.7888 16.5008 64.0801 21.2546 64.7066 22.2626C67.5288 26.8033 69.996 30.2801 66.7162 35.2414C64.8133 38.1198 62.0394 41.3519 58.8068 42.6708C57.508 43.2007 56.1829 42.3354 55.0388 42.9795" stroke="#F6BF34" stroke-width="3" stroke-linecap="round"/>
<path d="M54.1112 42.827C59.1278 40.0032 64.6718 38.6057 70.2697 37.5325C72.9133 37.0256 74.8166 36.8122 77.0257 38.5373C78.435 39.6379 80.3139 42.1555 80.4631 44.0026C80.7182 47.1594 71.4341 50.7308 69.6942 51.4487C63.1596 54.1447 56.2247 52.4187 51.0771 48.1595" stroke="#F6BF34" stroke-width="3" stroke-linecap="round"/>
<path d="M51.1023 48.387C54.1375 53.7791 57.3792 59.1002 60.2065 64.605C61.0788 66.3035 61.3517 68.0946 61.033 69.9785C60.3141 74.2281 55.0844 79.0246 50.905 76.4248C45.4918 73.0575 42.8594 65.5814 43.3487 59.5343C43.63 56.0582 45.5105 53.9598 46.9048 51.197" stroke="#F6BF34" stroke-width="3" stroke-linecap="round"/>
<path d="M47.2527 50.5217C44.2313 52.2223 41.2358 53.9807 38.1843 55.6261C33.4069 58.2021 28.9186 58.7864 23.6597 59.2527C21.0972 59.4799 17.3906 60.3405 15.5022 58.1213C14.1413 56.5221 15.4427 53.6684 16.7026 52.3096C20.5546 48.155 27.3306 44.7422 32.8248 43.577C35.0513 43.1048 40.1515 42.0537 42.0708 43.7532" stroke="#F6BF34" stroke-width="3" stroke-linecap="round"/>
<path d="M41.6171 43.418C36.4421 43.3994 31.8245 42.8252 27.33 40.4955C23.3332 38.4238 17.0527 35.3169 23.0749 30.8103C27.4946 27.5029 32.2028 27.57 37.1649 28.0219" stroke="#F6BF34" stroke-width="3" stroke-linecap="round"/>
</g>
<defs>
<filter id="filter0_f_364_254" x="8.72407" y="4.24507" width="77.9444" height="79.1183" filterUnits="userSpaceOnUse" color-interpolation-filters="sRGB">
<feFlood flood-opacity="0" result="BackgroundImageFix"/>
<feBlend mode="normal" in="SourceGraphic" in2="BackgroundImageFix" result="shape"/>
<feGaussianBlur stdDeviation="2.35" result="effect1_foregroundBlur_364_254"/>
</filter>
</defs>
</svg>
