<svg width="74" height="74" viewBox="0 0 74 74" fill="none" xmlns="http://www.w3.org/2000/svg">
<g id="&#208;&#191;&#208;&#190;&#209;&#135;&#209;&#130;&#208;&#176;" clip-path="url(#clip0_167_4321)">
<rect width="74" height="74" transform="translate(0 0.000488281)" fill="#D9D9D9"/>
<path id="Vector" d="M37 74.0005C57.4345 74.0005 74 57.435 74 37.0005C74 16.566 57.4345 0.000488281 37 0.000488281C16.5655 0.000488281 0 16.566 0 37.0005C0 57.435 16.5655 74.0005 37 74.0005Z" fill="#010201"/>
<path id="@" d="M52.6637 46.2118H56.9394C55.6012 48.9284 53.5469 51.0562 50.7768 52.5952C47.6051 54.3617 43.7376 55.245 39.1741 55.245C34.7579 55.245 30.9439 54.4955 27.7321 52.9967C24.5203 51.5112 22.1315 49.3165 20.5657 46.4125C19 43.4951 18.2171 40.3234 18.2171 36.8975C18.2171 33.137 19.107 29.6375 20.8869 26.3989C22.6668 23.147 25.1024 20.7114 28.1938 19.0921C31.2851 17.4594 34.8181 16.6431 38.7927 16.6431C42.1651 16.6431 45.1628 17.2988 47.7858 18.6103C50.4087 19.9218 52.4094 21.7886 53.7878 24.2109C55.1796 26.6197 55.8755 29.2561 55.8755 32.12C55.8755 35.5325 54.825 38.6172 52.7239 41.374C50.0876 44.8534 46.7085 46.5932 42.5867 46.5932C41.4759 46.5932 40.6395 46.3991 40.0774 46.011C39.5154 45.6229 39.1407 45.0542 38.9533 44.3047C37.3742 45.8303 35.5541 46.5932 33.4932 46.5932C31.2717 46.5932 29.4249 45.8303 27.9529 44.3047C26.4942 42.7658 25.7648 40.7249 25.7648 38.1822C25.7648 35.0373 26.6481 32.1668 28.4146 29.5706C30.5558 26.4123 33.2992 24.8332 36.6448 24.8332C39.0269 24.8332 40.7867 25.7432 41.9242 27.5632L42.4261 25.335H47.7256L44.6944 39.7279C44.5071 40.6379 44.4134 41.2268 44.4134 41.4944C44.4134 41.829 44.487 42.0832 44.6342 42.2572C44.7948 42.4178 44.9821 42.4981 45.1963 42.4981C45.8386 42.4981 46.6683 42.11 47.6854 41.3338C49.0504 40.3167 50.1545 38.9517 50.9976 37.2388C51.8407 35.5258 52.2622 33.7526 52.2622 31.9192C52.2622 28.6271 51.0712 25.877 48.6891 23.6689C46.307 21.4474 42.9814 20.3366 38.7124 20.3366C35.0858 20.3366 32.0078 21.0794 29.4785 22.5648C26.9626 24.0369 25.0622 26.1179 23.7775 28.8078C22.5062 31.4843 21.8705 34.2745 21.8705 37.1785C21.8705 40.0023 22.5798 42.5717 23.9983 44.8869C25.4303 47.2021 27.431 48.8883 30.0004 49.9455C32.5832 51.0161 35.5341 51.5514 38.8529 51.5514C42.0514 51.5514 44.8015 51.1031 47.1033 50.2064C49.4051 49.3232 51.2585 47.9916 52.6637 46.2118ZM30.9639 37.9614C30.9639 39.661 31.3052 40.9123 31.9877 41.7152C32.6836 42.5182 33.5401 42.9197 34.5571 42.9197C35.32 42.9197 36.0359 42.7323 36.705 42.3576C37.2136 42.0899 37.7154 41.6684 38.2106 41.0929C38.9199 40.2766 39.5288 39.0856 40.0373 37.5198C40.5592 35.954 40.8202 34.4954 40.8202 33.1437C40.8202 31.6315 40.4655 30.4739 39.7563 29.671C39.0604 28.8546 38.1771 28.4465 37.1065 28.4465C35.9556 28.4465 34.8917 28.8948 33.9148 29.7914C32.9379 30.6746 32.2018 31.9393 31.7067 33.5853C31.2115 35.2314 30.9639 36.6901 30.9639 37.9614Z" fill="white"/>
</g>
<defs>
<clipPath id="clip0_167_4321">
<rect width="74" height="74" fill="white" transform="translate(0 0.000488281)"/>
</clipPath>
</defs>
</svg>
