<svg width="118" height="20" viewBox="0 0 118 20" fill="none" xmlns="http://www.w3.org/2000/svg">
<path d="M1.93945 15H0.308594V0.683594H2.06641V5.79102C2.80859 4.86003 3.75586 4.39453 4.9082 4.39453C5.54622 4.39453 6.14844 4.52474 6.71484 4.78516C7.28776 5.03906 7.75651 5.40039 8.12109 5.86914C8.49219 6.33138 8.7819 6.89128 8.99023 7.54883C9.19857 8.20638 9.30273 8.90951 9.30273 9.6582C9.30273 11.4355 8.86328 12.8092 7.98438 13.7793C7.10547 14.7493 6.05078 15.2344 4.82031 15.2344C3.59635 15.2344 2.63607 14.7233 1.93945 13.7012V15ZM1.91992 9.73633C1.91992 10.9798 2.08919 11.8783 2.42773 12.4316C2.98112 13.3366 3.72982 13.7891 4.67383 13.7891C5.44206 13.7891 6.10612 13.457 6.66602 12.793C7.22591 12.1224 7.50586 11.1263 7.50586 9.80469C7.50586 8.45052 7.23568 7.45117 6.69531 6.80664C6.16146 6.16211 5.51367 5.83984 4.75195 5.83984C3.98372 5.83984 3.31966 6.17513 2.75977 6.8457C2.19987 7.50977 1.91992 8.47331 1.91992 9.73633ZM10.573 18.9941L10.3777 17.3438C10.7618 17.4479 11.0971 17.5 11.3836 17.5C11.7742 17.5 12.0867 17.4349 12.3211 17.3047C12.5555 17.1745 12.7475 16.9922 12.8973 16.7578C13.0079 16.582 13.187 16.1458 13.4344 15.4492C13.4669 15.3516 13.519 15.2083 13.5906 15.0195L9.65508 4.62891H11.5496L13.7078 10.6348C13.9878 11.3965 14.2384 12.1973 14.4598 13.0371C14.6616 12.2298 14.9025 11.4421 15.1824 10.6738L17.3992 4.62891H19.157L15.2117 15.1758C14.7885 16.3151 14.4598 17.0996 14.2254 17.5293C13.9129 18.1087 13.5548 18.5319 13.1512 18.7988C12.7475 19.0723 12.2658 19.209 11.7059 19.209C11.3673 19.209 10.9897 19.1374 10.573 18.9941ZM22.7027 0.683594V5.94727C23.5882 4.91211 24.6461 4.39453 25.8766 4.39453C26.5081 4.39453 27.0777 4.51172 27.5855 4.74609C28.0934 4.98047 28.4742 5.27995 28.7281 5.64453C28.9885 6.00911 29.1643 6.41276 29.2555 6.85547C29.3531 7.29818 29.402 7.98503 29.402 8.91602V15H26.6578V9.52148C26.6578 8.43424 26.6057 7.74414 26.5016 7.45117C26.3974 7.1582 26.2118 6.92708 25.9449 6.75781C25.6845 6.58203 25.3557 6.49414 24.9586 6.49414C24.5029 6.49414 24.096 6.60482 23.7379 6.82617C23.3798 7.04753 23.1161 7.38281 22.9469 7.83203C22.7841 8.27474 22.7027 8.93229 22.7027 9.80469V15H19.9586V0.683594H22.7027ZM31.1898 4.62891H33.7191V6.04492C34.6241 4.94466 35.7016 4.39453 36.9516 4.39453C37.6156 4.39453 38.1918 4.53125 38.6801 4.80469C39.1684 5.07812 39.5688 5.49154 39.8813 6.04492C40.337 5.49154 40.8285 5.07812 41.3559 4.80469C41.8832 4.53125 42.4464 4.39453 43.0453 4.39453C43.807 4.39453 44.4516 4.55078 44.9789 4.86328C45.5063 5.16927 45.9001 5.62174 46.1605 6.2207C46.3493 6.66341 46.4438 7.37956 46.4438 8.36914V15H43.6996V9.07227C43.6996 8.04362 43.6052 7.37956 43.4164 7.08008C43.1625 6.68945 42.7719 6.49414 42.2445 6.49414C41.8604 6.49414 41.4991 6.61133 41.1605 6.8457C40.822 7.08008 40.5779 7.42513 40.4281 7.88086C40.2784 8.33008 40.2035 9.04297 40.2035 10.0195V15H37.4594V9.31641C37.4594 8.30729 37.4105 7.65625 37.3129 7.36328C37.2152 7.07031 37.0622 6.85221 36.8539 6.70898C36.6521 6.56576 36.3754 6.49414 36.0238 6.49414C35.6007 6.49414 35.2198 6.60807 34.8813 6.83594C34.5427 7.0638 34.2986 7.39258 34.1488 7.82227C34.0056 8.25195 33.934 8.96484 33.934 9.96094V15H31.1898V4.62891ZM50.4387 7.79297L47.9484 7.34375C48.2284 6.34115 48.7102 5.59896 49.3937 5.11719C50.0773 4.63542 51.093 4.39453 52.4406 4.39453C53.6646 4.39453 54.576 4.54102 55.175 4.83398C55.774 5.12044 56.1939 5.48828 56.4348 5.9375C56.6822 6.38021 56.8059 7.19727 56.8059 8.38867L56.7766 11.5918C56.7766 12.5033 56.8189 13.1771 56.9035 13.6133C56.9947 14.043 57.1607 14.5052 57.4016 15H54.6867C54.6151 14.8177 54.5272 14.5475 54.423 14.1895C54.3775 14.0267 54.3449 13.9193 54.3254 13.8672C53.8566 14.3229 53.3553 14.6647 52.8215 14.8926C52.2876 15.1204 51.718 15.2344 51.1125 15.2344C50.0448 15.2344 49.2017 14.9447 48.5832 14.3652C47.9712 13.7858 47.6652 13.0534 47.6652 12.168C47.6652 11.582 47.8052 11.0612 48.0852 10.6055C48.3651 10.1432 48.7557 9.79167 49.257 9.55078C49.7648 9.30339 50.494 9.08854 51.4445 8.90625C52.7271 8.66536 53.6158 8.44076 54.1105 8.23242V7.95898C54.1105 7.43164 53.9803 7.05729 53.7199 6.83594C53.4595 6.60807 52.968 6.49414 52.2453 6.49414C51.757 6.49414 51.3762 6.5918 51.1027 6.78711C50.8293 6.97591 50.6079 7.3112 50.4387 7.79297ZM54.1105 10.0195C53.759 10.1367 53.2023 10.2767 52.4406 10.4395C51.6789 10.6022 51.1809 10.7617 50.9465 10.918C50.5884 11.1719 50.4094 11.4941 50.4094 11.8848C50.4094 12.2689 50.5526 12.6009 50.8391 12.8809C51.1255 13.1608 51.4901 13.3008 51.9328 13.3008C52.4276 13.3008 52.8996 13.138 53.3488 12.8125C53.6809 12.5651 53.899 12.2624 54.0031 11.9043C54.0747 11.6699 54.1105 11.224 54.1105 10.5664V10.0195ZM61.3477 15H58.6035V4.62891H61.1523V6.10352C61.5885 5.4069 61.9792 4.94792 62.3242 4.72656C62.6758 4.50521 63.0729 4.39453 63.5156 4.39453C64.1406 4.39453 64.7428 4.56706 65.3223 4.91211L64.4727 7.30469C64.0104 7.00521 63.5807 6.85547 63.1836 6.85547C62.7995 6.85547 62.474 6.96289 62.207 7.17773C61.9401 7.38607 61.7285 7.76693 61.5723 8.32031C61.4225 8.8737 61.3477 10.0326 61.3477 11.7969V15ZM67.7645 7.79297L65.2742 7.34375C65.5542 6.34115 66.0359 5.59896 66.7195 5.11719C67.4031 4.63542 68.4187 4.39453 69.7664 4.39453C70.9904 4.39453 71.9018 4.54102 72.5008 4.83398C73.0997 5.12044 73.5197 5.48828 73.7605 5.9375C74.0079 6.38021 74.1316 7.19727 74.1316 8.38867L74.1023 11.5918C74.1023 12.5033 74.1447 13.1771 74.2293 13.6133C74.3204 14.043 74.4865 14.5052 74.7273 15H72.0125C71.9409 14.8177 71.853 14.5475 71.7488 14.1895C71.7033 14.0267 71.6707 13.9193 71.6512 13.8672C71.1824 14.3229 70.6811 14.6647 70.1473 14.8926C69.6134 15.1204 69.0437 15.2344 68.4383 15.2344C67.3706 15.2344 66.5275 14.9447 65.909 14.3652C65.297 13.7858 64.991 13.0534 64.991 12.168C64.991 11.582 65.131 11.0612 65.4109 10.6055C65.6909 10.1432 66.0815 9.79167 66.5828 9.55078C67.0906 9.30339 67.8198 9.08854 68.7703 8.90625C70.0529 8.66536 70.9415 8.44076 71.4363 8.23242V7.95898C71.4363 7.43164 71.3061 7.05729 71.0457 6.83594C70.7853 6.60807 70.2937 6.49414 69.5711 6.49414C69.0828 6.49414 68.702 6.5918 68.4285 6.78711C68.1551 6.97591 67.9337 7.3112 67.7645 7.79297ZM71.4363 10.0195C71.0848 10.1367 70.5281 10.2767 69.7664 10.4395C69.0047 10.6022 68.5066 10.7617 68.2723 10.918C67.9142 11.1719 67.7352 11.4941 67.7352 11.8848C67.7352 12.2689 67.8784 12.6009 68.1648 12.8809C68.4513 13.1608 68.8159 13.3008 69.2586 13.3008C69.7534 13.3008 70.2254 13.138 70.6746 12.8125C71.0066 12.5651 71.2247 12.2624 71.3289 11.9043C71.4005 11.6699 71.4363 11.224 71.4363 10.5664V10.0195ZM85.0895 7.69531L82.3844 8.18359C82.2932 7.64323 82.0849 7.23633 81.7594 6.96289C81.4404 6.68945 81.0237 6.55273 80.5094 6.55273C79.8258 6.55273 79.2789 6.79036 78.8688 7.26562C78.4651 7.73438 78.2633 8.52214 78.2633 9.62891C78.2633 10.8594 78.4684 11.7285 78.8785 12.2363C79.2952 12.7441 79.8518 12.998 80.5484 12.998C81.0693 12.998 81.4957 12.8516 81.8277 12.5586C82.1598 12.2591 82.3941 11.748 82.5309 11.0254L85.2262 11.4844C84.9462 12.7214 84.4091 13.6556 83.6148 14.2871C82.8206 14.9186 81.7561 15.2344 80.4215 15.2344C78.9046 15.2344 77.6936 14.7559 76.7887 13.7988C75.8902 12.8418 75.441 11.5169 75.441 9.82422C75.441 8.11198 75.8935 6.7806 76.7984 5.83008C77.7034 4.87305 78.9273 4.39453 80.4703 4.39453C81.7333 4.39453 82.7359 4.66797 83.4781 5.21484C84.2268 5.75521 84.7639 6.58203 85.0895 7.69531ZM89.1137 0.683594V5.94727C89.9991 4.91211 91.057 4.39453 92.2875 4.39453C92.919 4.39453 93.4887 4.51172 93.9965 4.74609C94.5043 4.98047 94.8852 5.27995 95.1391 5.64453C95.3995 6.00911 95.5753 6.41276 95.6664 6.85547C95.7641 7.29818 95.8129 7.98503 95.8129 8.91602V15H93.0687V9.52148C93.0687 8.43424 93.0167 7.74414 92.9125 7.45117C92.8083 7.1582 92.6228 6.92708 92.3559 6.75781C92.0954 6.58203 91.7667 6.49414 91.3695 6.49414C90.9138 6.49414 90.5069 6.60482 90.1488 6.82617C89.7908 7.04753 89.5271 7.38281 89.3578 7.83203C89.1951 8.27474 89.1137 8.93229 89.1137 9.80469V15H86.3695V0.683594H89.1137ZM97.1711 9.66797C97.1711 8.75651 97.3957 7.87435 97.8449 7.02148C98.2941 6.16862 98.9289 5.51758 99.7492 5.06836C100.576 4.61914 101.497 4.39453 102.513 4.39453C104.082 4.39453 105.368 4.9056 106.37 5.92773C107.373 6.94336 107.874 8.22917 107.874 9.78516C107.874 11.3542 107.366 12.6562 106.351 13.6914C105.342 14.7201 104.069 15.2344 102.532 15.2344C101.582 15.2344 100.674 15.0195 99.8078 14.5898C98.9484 14.1602 98.2941 13.5319 97.8449 12.7051C97.3957 11.8717 97.1711 10.8594 97.1711 9.66797ZM99.9836 9.81445C99.9836 10.8431 100.228 11.6309 100.716 12.1777C101.204 12.7246 101.807 12.998 102.523 12.998C103.239 12.998 103.838 12.7246 104.32 12.1777C104.808 11.6309 105.052 10.8366 105.052 9.79492C105.052 8.7793 104.808 7.99805 104.32 7.45117C103.838 6.9043 103.239 6.63086 102.523 6.63086C101.807 6.63086 101.204 6.9043 100.716 7.45117C100.228 7.99805 99.9836 8.78581 99.9836 9.81445ZM108.266 12.041L111.02 11.6211C111.137 12.1549 111.374 12.5618 111.732 12.8418C112.09 13.1152 112.592 13.252 113.236 13.252C113.946 13.252 114.48 13.1217 114.838 12.8613C115.079 12.679 115.199 12.4349 115.199 12.1289C115.199 11.9206 115.134 11.748 115.004 11.6113C114.867 11.4811 114.561 11.3607 114.086 11.25C111.872 10.7617 110.469 10.3158 109.877 9.91211C109.057 9.35221 108.646 8.57422 108.646 7.57812C108.646 6.67969 109.001 5.92448 109.711 5.3125C110.421 4.70052 111.521 4.39453 113.012 4.39453C114.431 4.39453 115.486 4.62565 116.176 5.08789C116.866 5.55013 117.341 6.23372 117.602 7.13867L115.014 7.61719C114.903 7.21354 114.691 6.9043 114.379 6.68945C114.073 6.47461 113.633 6.36719 113.061 6.36719C112.338 6.36719 111.82 6.4681 111.508 6.66992C111.299 6.81315 111.195 6.9987 111.195 7.22656C111.195 7.42188 111.286 7.58789 111.469 7.72461C111.716 7.9069 112.569 8.16406 114.027 8.49609C115.492 8.82812 116.514 9.23503 117.094 9.7168C117.667 10.2051 117.953 10.8854 117.953 11.7578C117.953 12.7083 117.556 13.5254 116.762 14.209C115.967 14.8926 114.792 15.2344 113.236 15.2344C111.824 15.2344 110.704 14.9479 109.877 14.375C109.057 13.8021 108.52 13.0241 108.266 12.041Z" fill="black"/>
</svg>
