<svg width="395" height="407" viewBox="0 0 395 407" fill="none" xmlns="http://www.w3.org/2000/svg">
<g filter="url(#filter0_f_328_20)">
<path d="M79.76 318.182C81.096 316.417 92.5286 321.905 94.3924 322.643C100.354 325.004 97.9439 334.757 94.9036 338.737C90.7206 344.213 83.4453 339.833 79.1796 337.153C74.8785 334.451 66.257 330.309 70.1695 324.097C71.6518 321.743 74.0601 319.112 76.9102 320.314" stroke="#83A8B4" stroke-width="3" stroke-linecap="round"/>
<path d="M78.842 316.034C77.5092 311.059 75.3361 306.01 74.6778 300.918C74.1043 296.482 74.6698 292.776 75.635 288.46C76.2973 285.499 76.5587 276.692 81.2999 278.96C86.1292 281.27 87.4795 285.89 89.1377 290.62C90.7996 295.36 92.3657 300.845 91.8711 305.928C91.6732 307.963 89.9254 312.717 91.0796 314.465" stroke="#83A8B4" stroke-width="3" stroke-linecap="round"/>
<path d="M90.8462 314.87C92.8999 311.313 93.9055 307.34 96.2538 303.842C99.6897 298.723 104.531 293.217 111.462 294.635C115.04 295.367 113.782 299.381 112.533 301.609C111.25 303.896 110.047 306.489 108.284 308.449C105.848 311.156 102.972 313.302 100.633 316.143C99.1711 317.92 94.4822 322.982 95.9222 321.188C97.1841 319.615 99.8987 318.793 101.545 317.629C104.363 315.635 108.057 314.991 111.409 314.51C114.007 314.138 122.22 313.364 123.223 317.104C124.224 320.841 120.076 327.279 116.971 328.814C111.392 331.572 104.88 331.797 98.9509 330.221C97.0916 329.728 99.7267 330.258 100.329 330.327C103.979 330.748 107.362 332.572 110.734 333.906C115.852 335.932 121.052 337.705 125.833 340.466C127.554 341.459 129.691 342.793 130.342 344.807C131.454 348.25 129.973 351.878 125.886 351.798C123.218 351.746 120.865 350.059 118.66 348.736C113.732 345.778 109.509 342.157 105.294 338.291C103.349 336.506 101.559 334.545 99.2596 333.218C97.7953 332.372 99.3937 333.295 99.9791 333.633C107.071 337.728 111.343 344.741 115.291 351.767C117.899 356.408 119.346 361.591 119.149 366.945C119.077 368.9 117.888 372.327 115.623 372.794C112.771 373.381 109.147 368.395 107.838 366.65C105.742 363.857 104.308 360.685 102.764 357.575C100.577 353.172 98.0689 348.949 95.8568 344.564C95.2315 343.324 94.1991 339.325 94.2734 340.712C94.6104 346.994 93.9342 353.414 92.0324 359.444C90.451 364.458 87.773 370.992 82.142 372.68C78.2656 373.842 75.2077 371.011 73.3973 367.991C70.077 362.453 72.2617 356.405 75.2008 351.315C76.7925 348.558 78.2954 345.746 80.2797 343.245C81.4962 341.712 78.1529 345.175 77.9904 345.341C72.975 350.468 67.0032 354.771 60.8199 358.361C53.2556 362.753 43.4524 369.464 34.2176 367.675C31.0355 367.059 26.3688 366.035 24.3095 363.184C22.7735 361.056 24.7748 357.474 25.6093 355.48C27.539 350.869 29.6492 345.505 33.494 342.135C39.4869 336.882 47.0629 336.641 54.5693 335.956C58.9105 335.559 63.1063 334.642 67.3667 333.781C70.3638 333.175 68.0263 333.05 66.4268 332.968C63.0704 332.797 59.8151 333.179 56.474 332.708C50.3887 331.851 44.3008 330.951 38.2568 329.835C32.9017 328.846 25.9814 328.131 21.2884 324.955C18.7116 323.211 18.2024 320.167 19.0809 317.355C22.0963 307.702 33.5182 310.936 40.8175 312.367C46.5056 313.482 53.1582 314.245 58.3049 317.127C61.4564 318.892 64.6137 320.683 67.7033 322.553C69.357 323.555 63.3056 320.578 62.613 320.154C57.277 316.885 53.6638 310.998 50.0362 306.058C46.6125 301.395 40.2768 294.143 43.7885 288.061C46.9149 282.646 59.2901 290.178 62.5606 292.154C65.7169 294.06 70.8094 298.216 71.0778 302.377" stroke="#83A8B4" stroke-width="3" stroke-linecap="round"/>
<path d="M290.176 270C287.959 270 287.171 270.082 286.424 272.425C285.879 274.132 285.999 276.049 286.041 277.83C286.104 280.561 288.955 281 291.056 281C293.257 281 295 280.25 295 277.868C295 273.781 294.594 271.197 289.487 270.688" stroke="#F6BF34" stroke-width="3" stroke-linecap="round"/>
<path d="M288.994 270.873C288.655 265.727 287.281 259.45 288.486 254.291C289.111 251.612 291.491 249.336 293.342 247.38C295.512 245.087 297.464 245.824 299.357 248.32C302.532 252.506 300.356 257.913 299.052 262.239C298.82 263.011 295.288 273.413 294.846 272.987" stroke="#F6BF34" stroke-width="3" stroke-linecap="round"/>
<path d="M295 273.098C295 270.841 298.586 268.651 299.955 267.432C302.713 264.976 306.198 262.169 309.658 261.042C311.368 260.485 311.846 265.612 311.892 266.668C312.098 271.425 312.494 275.202 307.781 277.619C305.047 279.022 301.482 280.319 298.397 279.93C297.158 279.774 296.507 278.524 295.338 278.524" stroke="#F6BF34" stroke-width="3" stroke-linecap="round"/>
<path d="M294.684 278C299.812 278 304.725 279.337 309.538 280.95C311.812 281.711 313.382 282.377 314.343 284.681C314.956 286.151 315.314 288.926 314.623 290.425C313.442 292.986 304.676 291.702 303.012 291.499C296.763 290.737 292.134 286.368 290 280.813" stroke="#F6BF34" stroke-width="3" stroke-linecap="round"/>
<path d="M289.92 281C289.92 286.511 290.112 292.057 289.901 297.564C289.836 299.264 289.266 300.773 288.195 302.096C285.781 305.08 279.626 306.518 277.518 302.674C274.788 297.696 276.011 290.744 279.033 286.264C280.77 283.689 283.146 282.882 285.435 281.347" stroke="#F6BF34" stroke-width="3" stroke-linecap="round"/>
<path d="M286 280.975C282.912 280.975 279.819 281.031 276.732 280.975C271.899 280.887 268.16 279.38 263.875 277.444C261.787 276.501 258.534 275.55 258.038 273.003C257.68 271.167 259.937 269.521 261.508 269.016C266.313 267.475 273.063 267.786 277.836 269.282C279.77 269.888 284.188 271.301 284.935 273.458" stroke="#F6BF34" stroke-width="3" stroke-linecap="round"/>
<path d="M284.729 273C280.721 270.725 277.388 268.262 274.918 264.49C272.721 261.136 269.204 255.981 275.846 255.114C280.721 254.478 284.346 256.587 288 259.106" stroke="#F6BF34" stroke-width="3" stroke-linecap="round"/>
<path d="M69.6382 122.019C68.1721 122.786 72.3191 128.842 73.6435 129.326C75.1636 129.882 76.9461 128.474 77.26 127.211C78.3948 122.645 72.9345 118.995 68.5882 121.379" stroke="#F6BF34" stroke-width="3" stroke-linecap="round"/>
<path d="M67.6078 123.569C66.3831 122.405 64.9403 121.448 63.6303 120.394C62.007 119.088 61.1032 117.366 59.9514 115.641C58.3421 113.23 57.5097 110.762 56.6835 107.97C56.2408 106.474 55.8431 104.474 55.8431 102.98" stroke="#F6BF34" stroke-width="3" stroke-linecap="round"/>
<path d="M72.5098 120.627C72.0288 120.562 70.4628 115.01 70.2948 114.458C69.3345 111.3 67.6877 108.936 65.6652 106.498C64.1934 104.723 62.2687 103.67 60.7451 102" stroke="#F6BF34" stroke-width="3" stroke-linecap="round"/>
<path d="M71.7224 119.647C71.7224 115.998 71.0024 112.073 72.3438 108.615C73.0097 106.898 74.4579 105.561 75.451 103.961" stroke="#F6BF34" stroke-width="3" stroke-linecap="round"/>
<path d="M74.4706 121.608C74.4706 120.408 76.0533 118.941 76.8463 117.94C77.8771 116.639 79.222 114.517 79.222 112.929C79.222 110.027 79.8845 106.362 78.4301 103.961" stroke="#F6BF34" stroke-width="3" stroke-linecap="round"/>
<path d="M74.8992 121.337C76.9321 118.755 78.0445 115.813 80.7808 113.765C83.4667 111.754 85.4315 110.445 88.6932 109.902C93.0064 109.185 90.7194 115.164 89.3829 117.054C86.9432 120.503 82.1588 122.086 78.5393 123.823C77.9787 124.092 76.7768 124.435 76.7768 124.435C76.7768 124.435 77.9826 124.424 78.5393 124.224C80.7344 123.436 82.8718 121.681 85.283 121.681C88.5041 121.681 92.7772 121.922 95.0537 124.607C95.9656 125.682 96.9318 127.131 96.9696 128.565C96.9919 129.411 97.1491 130.539 96.7588 131.318C95.2328 134.365 87.7442 132.694 85.4746 132.122C82.609 131.399 79.8914 129.671 77.045 129.062C76.58 128.963 77.9055 129.482 78.3669 129.598C79.8981 129.98 81.288 130.188 82.4859 131.318C85.098 133.785 89.2558 135.113 91.2796 138.03C92.6924 140.067 92.5066 143.345 90.7623 145.086C89.0703 146.775 84.2213 148.843 81.9495 147.763C81.5626 147.579 81.2287 146.325 81.1065 145.966C80.3383 143.706 79.4154 141.81 78.1945 139.751C77.1218 137.942 76.087 136.126 74.9759 134.34C74.7172 133.924 74.5123 133.108 74.1329 132.772C72.5932 131.406 74.6793 136.849 75.0525 138.871C75.6655 142.193 75.9863 148.92 73.1367 151.128C70.7181 153.003 67.592 151.564 65.7991 149.541C61.9448 145.193 65.848 138.501 68.0023 134.416C68.6303 133.225 72.5031 128.659 69.1901 130.821C66.7207 132.433 64.0422 134.058 61.431 135.43C59.0794 136.665 55.5481 138.445 52.963 136.959C50.791 135.711 47.9381 134.16 48.001 131.395C48.0353 129.89 49.4082 128.519 50.5874 127.705C54.0223 125.331 57.2623 122.8 61.3735 121.681C62.305 121.428 66.1133 120.664 66.6229 121.681" stroke="#F6BF34" stroke-width="3" stroke-linecap="round"/>
<path d="M344.734 58.305C344.283 59.966 334.443 59.3272 332.884 59.3359C327.898 59.3638 326.805 51.6291 327.842 47.8752C329.269 42.7102 335.789 43.7571 339.644 44.4517C343.531 45.1521 350.953 45.6363 349.935 51.2536C349.549 53.3818 348.576 55.9794 346.171 55.9396" stroke="#83A8B4" stroke-width="3" stroke-linecap="round"/>
<path d="M346.02 59.5881C348.426 62.7891 351.46 65.8007 353.413 69.2821C355.115 72.3157 355.783 75.1533 356.34 78.5466C356.722 80.875 359.091 87.3037 355.012 87.0445C350.858 86.7805 348.542 83.8396 345.973 80.9094C343.398 77.9726 340.675 74.4711 339.556 70.6606C339.108 69.1354 338.988 65.1988 337.648 64.2729" stroke="#83A8B4" stroke-width="3" stroke-linecap="round"/>
<path d="M337.699 63.9136C337.251 67.0757 337.679 70.2331 337.001 73.4386C336.008 78.1286 334.115 83.5064 328.703 84.4958C325.91 85.0065 325.652 81.7463 325.907 79.7764C326.168 77.7541 326.282 75.5343 326.985 73.6084C327.956 70.9488 329.407 68.5653 330.269 65.8367C330.809 64.1307 332.721 59.1174 332.203 60.8299C331.749 62.3306 330.03 63.7118 329.181 65.0298C327.727 67.2867 325.249 68.8234 322.971 70.1436C321.205 71.1665 315.505 74.1097 313.696 71.703C311.888 69.2977 313.011 63.4499 314.805 61.441C318.029 57.8312 322.661 55.7787 327.395 55.1931C328.88 55.0095 326.825 55.392 326.371 55.5167C323.615 56.2734 320.645 55.9398 317.826 55.9563C313.545 55.9814 309.28 56.2122 305.029 55.6093C303.5 55.3923 301.571 55.0502 300.517 53.7865C298.715 51.6263 298.729 48.5796 301.701 47.45C303.64 46.7128 305.828 47.2469 307.802 47.561C312.216 48.2632 316.314 49.6494 320.477 51.2143C322.398 51.9366 324.258 52.8315 326.303 53.1214C327.604 53.3061 326.183 53.1045 325.663 53.0307C319.358 52.1364 314.24 48.3179 309.352 44.3961C306.124 41.8055 303.575 38.4873 302.162 34.5677C301.646 33.1371 301.509 30.319 303.008 29.325C304.895 28.0733 308.956 30.6173 310.407 31.4961C312.73 32.9028 314.685 34.7743 316.702 36.5689C319.558 39.1105 322.594 41.4281 325.463 43.9491C326.274 44.6616 328.18 47.2463 327.723 46.268C325.656 41.8344 324.28 37.0068 323.901 32.1051C323.586 28.029 323.62 22.5378 327.192 19.6853C329.651 17.7217 332.678 18.8761 334.861 20.5285C338.864 23.5591 339.044 28.5559 338.402 33.0814C338.055 35.5323 337.787 37.997 337.082 40.3773C336.65 41.8366 338.056 38.3677 338.125 38.2008C340.254 33.0462 343.312 28.2081 346.73 23.8229C350.911 18.4583 356.034 10.7714 363.215 9.38013C365.689 8.90076 369.353 8.28377 371.666 9.74291C373.392 10.8312 372.988 13.9967 372.965 15.6772C372.912 19.5633 372.948 24.0457 371.153 27.593C368.355 33.1223 362.96 35.4959 357.745 38.1699C354.728 39.7164 351.968 41.5965 349.145 43.4545C347.159 44.7616 348.881 44.1733 350.059 43.7677C352.529 42.9164 354.767 41.696 357.313 41.0653C361.952 39.9167 366.605 38.798 371.288 37.8482C375.438 37.0066 380.638 35.5133 384.945 36.4414C387.31 36.9509 388.562 38.9988 388.745 41.2826C389.372 49.1212 380.194 50.1053 374.514 51.1922C370.087 52.0392 365.066 53.4207 360.517 52.8363C357.731 52.4785 354.934 52.1034 352.162 51.6512C350.678 51.4091 355.908 51.7988 356.53 51.9038C361.329 52.7126 365.645 55.9099 369.696 58.4202C373.519 60.7894 380.195 64.1808 379.428 69.588C378.745 74.4019 367.631 72.5619 364.699 72.0865C361.868 71.6276 356.988 70.1086 355.586 67.1848" stroke="#83A8B4" stroke-width="3" stroke-linecap="round"/>
</g>
<defs>
<filter id="filter0_f_328_20" x="13.1866" y="3.33154" width="381.089" height="375.115" filterUnits="userSpaceOnUse" color-interpolation-filters="sRGB">
<feFlood flood-opacity="0" result="BackgroundImageFix"/>
<feBlend mode="normal" in="SourceGraphic" in2="BackgroundImageFix" result="shape"/>
<feGaussianBlur stdDeviation="2" result="effect1_foregroundBlur_328_20"/>
</filter>
</defs>
</svg>
