<svg width="74" height="74" viewBox="0 0 74 74" fill="none" xmlns="http://www.w3.org/2000/svg">
<g id="&#208;&#184;&#208;&#189;&#209;&#129;&#209;&#130;&#208;&#176;" clip-path="url(#clip0_167_4308)">
<rect width="74" height="74" transform="translate(0 0.000488281)" fill="#D9D9D9"/>
<path id="Vector" d="M37 74.0005C57.4345 74.0005 74 57.435 74 37.0005C74 16.566 57.4345 0.000488281 37 0.000488281C16.5655 0.000488281 0 16.566 0 37.0005C0 57.435 16.5655 74.0005 37 74.0005Z" fill="#010201"/>
<g id="Group">
<path id="Vector_2" d="M37 17.9029C43.2215 17.9029 43.956 17.9248 46.4117 18.04C48.681 18.1441 49.9144 18.5223 50.7366 18.8402C51.8219 19.2623 52.6003 19.7666 53.417 20.5834C54.2338 21.4001 54.7381 22.173 55.1602 23.2638C55.4781 24.086 55.8563 25.3194 55.9604 27.5887C56.0701 30.0444 56.0975 30.7844 56.0975 37.0004C56.0975 43.2164 56.0756 43.9564 55.9604 46.4121C55.8563 48.6814 55.4781 49.9148 55.1602 50.737C54.7381 51.8223 54.2338 52.6007 53.417 53.4174C52.6003 54.2342 51.8274 54.7385 50.7366 55.1605C49.9144 55.4785 48.681 55.8567 46.4117 55.9608C43.956 56.0705 43.2215 56.0979 37 56.0979C30.7785 56.0979 30.044 56.076 27.5883 55.9608C25.319 55.8567 24.0856 55.4785 23.2634 55.1605C22.1781 54.7385 21.3997 54.2342 20.583 53.4174C19.7662 52.6007 19.2619 51.8278 18.8399 50.737C18.5219 49.9148 18.1437 48.6814 18.0396 46.4121C17.9299 43.9564 17.9025 43.2164 17.9025 37.0004C17.9025 30.7844 17.9244 30.0444 18.0396 27.5887C18.1437 25.3194 18.5219 24.086 18.8399 23.2638C19.2619 22.1785 19.7662 21.4001 20.583 20.5834C21.3997 19.7666 22.1726 19.2623 23.2634 18.8402C24.0856 18.5223 25.319 18.1441 27.5883 18.04C30.044 17.9303 30.784 17.9029 37 17.9029ZM37 13.7041C30.6744 13.7041 29.8796 13.7315 27.3964 13.8466C24.9188 13.9617 23.225 14.3509 21.7396 14.932C20.2102 15.5294 18.9111 16.3242 17.612 17.6179C16.3184 18.9115 15.5181 20.2106 14.9261 21.7454C14.3505 23.2254 13.9559 24.9192 13.8407 27.4023C13.7256 29.8854 13.6982 30.6803 13.6982 37.0059C13.6982 43.3315 13.7256 44.1263 13.8407 46.6094C13.9559 49.0871 14.345 50.7808 14.9261 52.2663C15.5236 53.7957 16.3184 55.0948 17.612 56.3939C18.9056 57.6875 20.2047 58.4878 21.7396 59.0798C23.2196 59.6554 24.9133 60.05 27.3964 60.1651C29.8796 60.2803 30.6744 60.3077 37 60.3077C43.3256 60.3077 44.1204 60.2803 46.6036 60.1651C49.0812 60.05 50.775 59.6608 52.2604 59.0798C53.7898 58.4823 55.0889 57.6875 56.388 56.3939C57.6816 55.1003 58.4819 53.8011 59.0739 52.2663C59.6495 50.7863 60.0442 49.0925 60.1593 46.6094C60.2744 44.1263 60.3018 43.3315 60.3018 37.0059C60.3018 30.6803 60.2744 29.8854 60.1593 27.4023C60.0442 24.9247 59.655 23.2309 59.0739 21.7454C58.4764 20.2161 57.6816 18.917 56.388 17.6179C55.0944 16.3242 53.7953 15.524 52.2604 14.932C50.7804 14.3564 49.0867 13.9617 46.6036 13.8466C44.1204 13.7315 43.3256 13.7041 37 13.7041Z" fill="white"/>
<path id="Vector_3" d="M37 25.04C30.3948 25.04 25.0394 30.3954 25.0394 37.0006C25.0394 43.6058 30.3948 48.9612 37 48.9612C43.6052 48.9612 48.9606 43.6058 48.9606 37.0006C48.9606 30.3954 43.6052 25.04 37 25.04ZM37 44.7679C32.7135 44.7679 29.2327 41.2926 29.2327 37.0006C29.2327 32.7086 32.708 29.2334 37 29.2334C41.292 29.2334 44.7673 32.7086 44.7673 37.0006C44.7673 41.2926 41.292 44.7679 37 44.7679Z" fill="white"/>
<path id="Vector_4" d="M49.4375 27.3587C50.9814 27.3587 52.2331 26.1071 52.2331 24.5631C52.2331 23.0192 50.9814 21.7676 49.4375 21.7676C47.8936 21.7676 46.6419 23.0192 46.6419 24.5631C46.6419 26.1071 47.8936 27.3587 49.4375 27.3587Z" fill="white"/>
</g>
</g>
<defs>
<clipPath id="clip0_167_4308">
<rect width="74" height="74" fill="white" transform="translate(0 0.000488281)"/>
</clipPath>
</defs>
</svg>
