<svg width="74" height="74" viewBox="0 0 74 74" fill="none" xmlns="http://www.w3.org/2000/svg">
<g id="&#209;&#130;&#208;&#181;&#208;&#187;&#208;&#181;&#208;&#179;&#208;&#176;" clip-path="url(#clip0_167_4318)">
<rect width="74" height="74" transform="translate(0 0.000488281)" fill="#D9D9D9"/>
<path id="Vector" d="M37 74.0005C57.4345 74.0005 74 57.435 74 37.0005C74 16.566 57.4345 0.000488281 37 0.000488281C16.5655 0.000488281 0 16.566 0 37.0005C0 57.435 16.5655 74.0005 37 74.0005Z" fill="#010201"/>
<path id="Vector_2" d="M55.0121 21.9703C54.8696 21.5592 54.6997 21.4441 54.4366 21.3454C53.861 21.1261 52.8853 21.455 52.8853 21.455C52.8853 21.455 18.3027 33.887 16.3293 35.2629C15.9018 35.5589 15.7593 35.7288 15.6935 35.9316C15.3536 36.9128 16.417 37.3458 16.417 37.3458L25.3299 40.251C25.3299 40.251 25.6643 40.3004 25.7794 40.2236C27.8075 38.9409 46.1815 27.3421 47.2394 26.9529C47.4093 26.9036 47.5299 26.9584 47.497 27.0735C47.075 28.5645 31.1184 42.7451 31.1184 42.7451C31.1184 42.7451 31.0581 42.8218 31.0197 42.9095L30.9978 42.8986L30.1646 51.7402C30.1646 51.7402 29.8138 54.4481 32.5271 51.7402C34.4401 49.8272 36.2874 48.2321 37.2138 47.4537C40.2779 49.5695 43.5778 51.9101 44.9975 53.1325C45.7101 53.7464 46.313 53.8451 46.8009 53.8286C48.1493 53.7793 48.5275 52.2938 48.5275 52.2938C48.5275 52.2938 54.8313 26.931 55.0396 23.5325C55.0615 23.1981 55.0889 22.9898 55.0889 22.7596C55.0889 22.4417 55.0615 22.1238 55.0121 21.9703Z" fill="white"/>
</g>
<defs>
<clipPath id="clip0_167_4318">
<rect width="74" height="74" fill="white" transform="translate(0 0.000488281)"/>
</clipPath>
</defs>
</svg>
